<?xml version="1.0" encoding="UTF-8" standalone="no"?>
<!DOCTYPE svg PUBLIC "-//W3C//DTD SVG 1.1//EN"
 "http://www.w3.org/Graphics/SVG/1.1/DTD/svg11.dtd">
<!-- Generated by graphviz version 2.43.0 (0)
 -->
<!-- Title: AcquisitionArchitecture Pages: 1 -->
<svg width="2324pt" height="1035pt"
 viewBox="0.00 0.00 2323.94 1035.40" xmlns="http://www.w3.org/2000/svg" xmlns:xlink="http://www.w3.org/1999/xlink">
<g id="graph0" class="graph" transform="scale(1 1) rotate(0) translate(25.2 1010.2)">
<title>AcquisitionArchitecture</title>
<polygon fill="white" stroke="transparent" points="-25.2,25.2 -25.2,-1010.2 2298.74,-1010.2 2298.74,25.2 -25.2,25.2"/>
<text text-anchor="middle" x="112" y="-971.4" font-family="Arial" font-size="12.00">fundamental/acquisition.py architecture</text>
<g id="clust1" class="cluster">
<title>cluster_external</title>
<path fill="white" stroke="#64748b" stroke-width="1.4" stroke-dasharray="5,2" d="M654.5,-425C654.5,-425 968.5,-425 968.5,-425 974.5,-425 980.5,-431 980.5,-437 980.5,-437 980.5,-902 980.5,-902 980.5,-908 974.5,-914 968.5,-914 968.5,-914 654.5,-914 654.5,-914 648.5,-914 642.5,-908 642.5,-902 642.5,-902 642.5,-437 642.5,-437 642.5,-431 648.5,-425 654.5,-425"/>
<text text-anchor="middle" x="796" y="-900.4" font-family="Arial" font-size="12.00">External callers / API exposed by AcquisitionController</text>
</g>
<g id="clust2" class="cluster">
<title>cluster_controller</title>
<path fill="white" stroke="#0f766e" stroke-width="1.6" d="M1143,-380C1143,-380 1987.54,-380 1987.54,-380 1993.54,-380 1999.54,-386 1999.54,-392 1999.54,-392 1999.54,-881 1999.54,-881 1999.54,-887 1993.54,-893 1987.54,-893 1987.54,-893 1143,-893 1143,-893 1137,-893 1131,-887 1131,-881 1131,-881 1131,-392 1131,-392 1131,-386 1137,-380 1143,-380"/>
<text text-anchor="middle" x="1195" y="-879.4" font-family="Arial" font-size="12.00">AcquisitionController</text>
</g>
<g id="clust3" class="cluster">
<title>cluster_worker</title>
<path fill="white" stroke="#7c3aed" stroke-width="1.6" d="M29.5,-67C29.5,-67 1964.77,-67 1964.77,-67 1970.77,-67 1976.77,-73 1976.77,-79 1976.77,-79 1976.77,-236 1976.77,-236 1976.77,-242 1970.77,-248 1964.77,-248 1964.77,-248 29.5,-248 29.5,-248 23.5,-248 17.5,-242 17.5,-236 17.5,-236 17.5,-79 17.5,-79 17.5,-73 23.5,-67 29.5,-67"/>
<text text-anchor="middle" x="112" y="-234.4" font-family="Arial" font-size="12.00">SerialWorker background thread</text>
</g>
<g id="clust4" class="cluster">
<title>cluster_deps</title>
<path fill="white" stroke="#94a3b8" stroke-dasharray="1,5" d="M2054.54,-8C2054.54,-8 2261.54,-8 2261.54,-8 2267.54,-8 2273.54,-14 2273.54,-20 2273.54,-20 2273.54,-510 2273.54,-510 2273.54,-516 2267.54,-522 2261.54,-522 2261.54,-522 2054.54,-522 2054.54,-522 2048.54,-522 2042.54,-516 2042.54,-510 2042.54,-510 2042.54,-20 2042.54,-20 2042.54,-14 2048.54,-8 2054.54,-8"/>
<text text-anchor="middle" x="2158.04" y="-508.4" font-family="Arial" font-size="12.00">External modules used by acquisition.py</text>
</g>
<!-- ui -->
<g id="node1" class="node">
<title>ui</title>
<polygon fill="#eff6ff" stroke="#2563eb" stroke-width="1.2" points="744.5,-641.5 650.5,-641.5 650.5,-637.5 646.5,-637.5 646.5,-633.5 650.5,-633.5 650.5,-606.5 646.5,-606.5 646.5,-602.5 650.5,-602.5 650.5,-598.5 744.5,-598.5 744.5,-641.5"/>
<polyline fill="none" stroke="#2563eb" stroke-width="1.2" points="650.5,-637.5 654.5,-637.5 654.5,-633.5 650.5,-633.5 "/>
<polyline fill="none" stroke="#2563eb" stroke-width="1.2" points="650.5,-606.5 654.5,-606.5 654.5,-602.5 650.5,-602.5 "/>
<text text-anchor="middle" x="697.5" y="-628.5" font-family="Arial" font-size="10.00">GUI blocks</text>
<text text-anchor="middle" x="697.5" y="-617.5" font-family="Arial" font-size="10.00">RecordingSession</text>
<text text-anchor="middle" x="697.5" y="-606.5" font-family="Arial" font-size="10.00">Tests</text>
</g>
<!-- update_config -->
<g id="node2" class="node">
<title>update_config</title>
<path fill="#e0f2fe" stroke="#334155" stroke-width="1.2" d="M948.5,-605C948.5,-605 882.5,-605 882.5,-605 876.5,-605 870.5,-599 870.5,-593 870.5,-593 870.5,-581 870.5,-581 870.5,-575 876.5,-569 882.5,-569 882.5,-569 948.5,-569 948.5,-569 954.5,-569 960.5,-575 960.5,-581 960.5,-581 960.5,-593 960.5,-593 960.5,-599 954.5,-605 948.5,-605"/>
<text text-anchor="middle" x="915.5" y="-584.5" font-family="Arial" font-size="10.00">update_config(...)</text>
</g>
<!-- ui&#45;&gt;update_config -->
<g id="edge1" class="edge">
<title>ui&#45;&gt;update_config</title>
<path fill="none" stroke="#334155" stroke-width="1.2" d="M744.85,-610C798.79,-610 879.54,-610 879.54,-610 879.54,-610 879.54,-609.51 879.54,-609.51"/>
<polygon fill="#334155" stroke="#334155" stroke-width="1.2" points="882.16,-612.62 879.54,-605.12 876.91,-612.62 882.16,-612.62"/>
</g>
<!-- start -->
<g id="node3" class="node">
<title>start</title>
<path fill="#e0f2fe" stroke="#334155" stroke-width="1.2" d="M930.5,-885C930.5,-885 900.5,-885 900.5,-885 894.5,-885 888.5,-879 888.5,-873 888.5,-873 888.5,-861 888.5,-861 888.5,-855 894.5,-849 900.5,-849 900.5,-849 930.5,-849 930.5,-849 936.5,-849 942.5,-855 942.5,-861 942.5,-861 942.5,-873 942.5,-873 942.5,-879 936.5,-885 930.5,-885"/>
<text text-anchor="middle" x="915.5" y="-864.5" font-family="Arial" font-size="10.00">start()</text>
</g>
<!-- ui&#45;&gt;start -->
<g id="edge2" class="edge">
<title>ui&#45;&gt;start</title>
<path fill="none" stroke="#334155" stroke-width="1.2" d="M682.54,-641.92C682.54,-702.37 682.54,-867 682.54,-867 682.54,-867 880.82,-867 880.82,-867"/>
<polygon fill="#334155" stroke="#334155" stroke-width="1.2" points="880.82,-869.63 888.32,-867 880.82,-864.38 880.82,-869.63"/>
</g>
<!-- pause -->
<g id="node4" class="node">
<title>pause</title>
<path fill="#e0f2fe" stroke="#334155" stroke-width="1.2" d="M930.5,-537C930.5,-537 900.5,-537 900.5,-537 894.5,-537 888.5,-531 888.5,-525 888.5,-525 888.5,-513 888.5,-513 888.5,-507 894.5,-501 900.5,-501 900.5,-501 930.5,-501 930.5,-501 936.5,-501 942.5,-507 942.5,-513 942.5,-513 942.5,-525 942.5,-525 942.5,-531 936.5,-537 930.5,-537"/>
<text text-anchor="middle" x="915.5" y="-516.5" font-family="Arial" font-size="10.00">pause()</text>
</g>
<!-- ui&#45;&gt;pause -->
<g id="edge3" class="edge">
<title>ui&#45;&gt;pause</title>
<path fill="none" stroke="#334155" stroke-width="1.2" d="M697.54,-598.08C697.54,-568.38 697.54,-519 697.54,-519 697.54,-519 880.84,-519 880.84,-519"/>
<polygon fill="#334155" stroke="#334155" stroke-width="1.2" points="880.84,-521.63 888.34,-519 880.84,-516.38 880.84,-521.63"/>
</g>
<!-- stop -->
<g id="node5" class="node">
<title>stop</title>
<path fill="#e0f2fe" stroke="#334155" stroke-width="1.2" d="M930.5,-741C930.5,-741 900.5,-741 900.5,-741 894.5,-741 888.5,-735 888.5,-729 888.5,-729 888.5,-717 888.5,-717 888.5,-711 894.5,-705 900.5,-705 900.5,-705 930.5,-705 930.5,-705 936.5,-705 942.5,-711 942.5,-717 942.5,-717 942.5,-729 942.5,-729 942.5,-735 936.5,-741 930.5,-741"/>
<text text-anchor="middle" x="915.5" y="-720.5" font-family="Arial" font-size="10.00">stop()</text>
</g>
<!-- ui&#45;&gt;stop -->
<g id="edge4" class="edge">
<title>ui&#45;&gt;stop</title>
<path fill="none" stroke="#334155" stroke-width="1.2" d="M713.54,-641.84C713.54,-672.08 713.54,-723 713.54,-723 713.54,-723 880.76,-723 880.76,-723"/>
<polygon fill="#334155" stroke="#334155" stroke-width="1.2" points="880.76,-725.63 888.26,-723 880.76,-720.38 880.76,-725.63"/>
</g>
<!-- save -->
<g id="node6" class="node">
<title>save</title>
<path fill="#e0f2fe" stroke="#334155" stroke-width="1.2" d="M950.5,-816.5C950.5,-816.5 880.5,-816.5 880.5,-816.5 874.5,-816.5 868.5,-810.5 868.5,-804.5 868.5,-804.5 868.5,-785.5 868.5,-785.5 868.5,-779.5 874.5,-773.5 880.5,-773.5 880.5,-773.5 950.5,-773.5 950.5,-773.5 956.5,-773.5 962.5,-779.5 962.5,-785.5 962.5,-785.5 962.5,-804.5 962.5,-804.5 962.5,-810.5 956.5,-816.5 950.5,-816.5"/>
<text text-anchor="middle" x="915.5" y="-803.5" font-family="Arial" font-size="10.00">save(path,</text>
<text text-anchor="middle" x="915.5" y="-792.5" font-family="Arial" font-size="10.00">stimulus resolver,</text>
<text text-anchor="middle" x="915.5" y="-781.5" font-family="Arial" font-size="10.00">stimulus log rows)</text>
</g>
<!-- ui&#45;&gt;save -->
<g id="edge5" class="edge">
<title>ui&#45;&gt;save</title>
<path fill="none" stroke="#334155" stroke-width="1.2" d="M744.74,-632.3C797.49,-632.3 875.54,-632.3 875.54,-632.3 875.54,-632.3 875.54,-765.89 875.54,-765.89"/>
<polygon fill="#334155" stroke="#334155" stroke-width="1.2" points="872.91,-765.89 875.54,-773.39 878.16,-765.89 872.91,-765.89"/>
</g>
<!-- drain -->
<g id="node7" class="node">
<title>drain</title>
<path fill="#e0f2fe" stroke="#334155" stroke-width="1.2" d="M960.5,-469C960.5,-469 870.5,-469 870.5,-469 864.5,-469 858.5,-463 858.5,-457 858.5,-457 858.5,-445 858.5,-445 858.5,-439 864.5,-433 870.5,-433 870.5,-433 960.5,-433 960.5,-433 966.5,-433 972.5,-439 972.5,-445 972.5,-445 972.5,-457 972.5,-457 972.5,-463 966.5,-469 960.5,-469"/>
<text text-anchor="middle" x="915.5" y="-454" font-family="Arial" font-size="10.00">drain_queues(log_sink,</text>
<text text-anchor="middle" x="915.5" y="-443" font-family="Arial" font-size="10.00">max_batches)</text>
</g>
<!-- ui&#45;&gt;drain -->
<g id="edge6" class="edge">
<title>ui&#45;&gt;drain</title>
<path fill="none" stroke="#334155" stroke-width="1.2" d="M744.64,-607.5C793.72,-607.5 863.54,-607.5 863.54,-607.5 863.54,-607.5 863.54,-476.76 863.54,-476.76"/>
<polygon fill="#334155" stroke="#334155" stroke-width="1.2" points="866.16,-476.76 863.54,-469.26 860.91,-476.76 866.16,-476.76"/>
</g>
<!-- shutdown -->
<g id="node8" class="node">
<title>shutdown</title>
<path fill="#e0f2fe" stroke="#334155" stroke-width="1.2" d="M935,-673C935,-673 896,-673 896,-673 890,-673 884,-667 884,-661 884,-661 884,-649 884,-649 884,-643 890,-637 896,-637 896,-637 935,-637 935,-637 941,-637 947,-643 947,-649 947,-649 947,-661 947,-661 947,-667 941,-673 935,-673"/>
<text text-anchor="middle" x="915.5" y="-652.5" font-family="Arial" font-size="10.00">shutdown()</text>
</g>
<!-- ui&#45;&gt;shutdown -->
<g id="edge7" class="edge">
<title>ui&#45;&gt;shutdown</title>
<path fill="none" stroke="#334155" stroke-width="1.2" d="M744.54,-628.1C808.64,-628.1 915.54,-628.1 915.54,-628.1 915.54,-628.1 915.54,-629.41 915.54,-629.41"/>
<polygon fill="#334155" stroke="#334155" stroke-width="1.2" points="912.91,-629.41 915.54,-636.91 918.16,-629.41 912.91,-629.41"/>
</g>
<!-- ctrl_config -->
<g id="node10" class="node">
<title>ctrl_config</title>
<path fill="#ccfbf1" stroke="#0f766e" stroke-width="1.2" d="M1227,-600C1227,-602.21 1211.76,-604 1193,-604 1174.24,-604 1159,-602.21 1159,-600 1159,-600 1159,-564 1159,-564 1159,-561.79 1174.24,-560 1193,-560 1211.76,-560 1227,-561.79 1227,-564 1227,-564 1227,-600 1227,-600"/>
<path fill="none" stroke="#0f766e" stroke-width="1.2" d="M1227,-600C1227,-597.79 1211.76,-596 1193,-596 1174.24,-596 1159,-597.79 1159,-600"/>
<text text-anchor="middle" x="1193" y="-585" font-family="Arial" font-size="10.00">config</text>
<text text-anchor="middle" x="1193" y="-574" font-family="Arial" font-size="10.00">SerialConfig</text>
</g>
<!-- update_config&#45;&gt;ctrl_config -->
<g id="edge8" class="edge">
<title>update_config&#45;&gt;ctrl_config</title>
<path fill="none" stroke="#2563eb" stroke-width="1.2" d="M960.7,-586.5C960.7,-586.5 1151.27,-586.5 1151.27,-586.5"/>
<polygon fill="#2563eb" stroke="#2563eb" stroke-width="1.2" points="1151.27,-589.13 1158.77,-586.5 1151.27,-583.88 1151.27,-589.13"/>
</g>
<!-- c_start -->
<g id="node17" class="node">
<title>c_start</title>
<path fill="#dbeafe" stroke="#2563eb" stroke-width="1.2" d="M1689.5,-766.5C1689.5,-766.5 1623.5,-766.5 1623.5,-766.5 1617.5,-766.5 1611.5,-760.5 1611.5,-754.5 1611.5,-754.5 1611.5,-713.5 1611.5,-713.5 1611.5,-707.5 1617.5,-701.5 1623.5,-701.5 1623.5,-701.5 1689.5,-701.5 1689.5,-701.5 1695.5,-701.5 1701.5,-707.5 1701.5,-713.5 1701.5,-713.5 1701.5,-754.5 1701.5,-754.5 1701.5,-760.5 1695.5,-766.5 1689.5,-766.5"/>
<text text-anchor="middle" x="1656.5" y="-753.5" font-family="Arial" font-size="10.00">start()</text>
<text text-anchor="middle" x="1656.5" y="-742.5" font-family="Arial" font-size="10.00">reset/resume</text>
<text text-anchor="middle" x="1656.5" y="-731.5" font-family="Arial" font-size="10.00">clear queues</text>
<text text-anchor="middle" x="1656.5" y="-720.5" font-family="Arial" font-size="10.00">spawn worker</text>
<text text-anchor="middle" x="1656.5" y="-709.5" font-family="Arial" font-size="10.00">state=RUNNING</text>
</g>
<!-- start&#45;&gt;c_start -->
<g id="edge9" class="edge">
<title>start&#45;&gt;c_start</title>
<path fill="none" stroke="#2563eb" stroke-width="1.2" d="M942.75,-856.5C1076.45,-856.5 1656.54,-856.5 1656.54,-856.5 1656.54,-856.5 1656.54,-774.01 1656.54,-774.01"/>
<polygon fill="#2563eb" stroke="#2563eb" stroke-width="1.2" points="1659.16,-774.01 1656.54,-766.51 1653.91,-774.01 1659.16,-774.01"/>
</g>
<!-- c_pause -->
<g id="node18" class="node">
<title>c_pause</title>
<path fill="#dbeafe" stroke="#2563eb" stroke-width="1.2" d="M1223,-528C1223,-528 1163,-528 1163,-528 1157,-528 1151,-522 1151,-516 1151,-516 1151,-486 1151,-486 1151,-480 1157,-474 1163,-474 1163,-474 1223,-474 1223,-474 1229,-474 1235,-480 1235,-486 1235,-486 1235,-516 1235,-516 1235,-522 1229,-528 1223,-528"/>
<text text-anchor="middle" x="1193" y="-515" font-family="Arial" font-size="10.00">pause()</text>
<text text-anchor="middle" x="1193" y="-504" font-family="Arial" font-size="10.00">_stop_worker()</text>
<text text-anchor="middle" x="1193" y="-493" font-family="Arial" font-size="10.00">keep buffer</text>
<text text-anchor="middle" x="1193" y="-482" font-family="Arial" font-size="10.00">state=PAUSED</text>
</g>
<!-- pause&#45;&gt;c_pause -->
<g id="edge10" class="edge">
<title>pause&#45;&gt;c_pause</title>
<path fill="none" stroke="#2563eb" stroke-width="1.2" d="M942.61,-514.5C942.61,-514.5 1143.45,-514.5 1143.45,-514.5"/>
<polygon fill="#2563eb" stroke="#2563eb" stroke-width="1.2" points="1143.45,-517.13 1150.95,-514.5 1143.45,-511.88 1143.45,-517.13"/>
</g>
<!-- c_stop -->
<g id="node19" class="node">
<title>c_stop</title>
<path fill="#dbeafe" stroke="#2563eb" stroke-width="1.2" d="M1226,-766C1226,-766 1160,-766 1160,-766 1154,-766 1148,-760 1148,-754 1148,-754 1148,-724 1148,-724 1148,-718 1154,-712 1160,-712 1160,-712 1226,-712 1226,-712 1232,-712 1238,-718 1238,-724 1238,-724 1238,-754 1238,-754 1238,-760 1232,-766 1226,-766"/>
<text text-anchor="middle" x="1193" y="-753" font-family="Arial" font-size="10.00">stop()</text>
<text text-anchor="middle" x="1193" y="-742" font-family="Arial" font-size="10.00">_stop_worker()</text>
<text text-anchor="middle" x="1193" y="-731" font-family="Arial" font-size="10.00">keep buffer</text>
<text text-anchor="middle" x="1193" y="-720" font-family="Arial" font-size="10.00">state=STOPPED</text>
</g>
<!-- stop&#45;&gt;c_stop -->
<g id="edge11" class="edge">
<title>stop&#45;&gt;c_stop</title>
<path fill="none" stroke="#2563eb" stroke-width="1.2" d="M942.61,-726.5C942.61,-726.5 1140.5,-726.5 1140.5,-726.5"/>
<polygon fill="#2563eb" stroke="#2563eb" stroke-width="1.2" points="1140.5,-729.13 1148,-726.5 1140.5,-723.88 1140.5,-729.13"/>
</g>
<!-- c_save -->
<g id="node20" class="node">
<title>c_save</title>
<path fill="#dcfce7" stroke="#16a34a" stroke-width="1.2" d="M1706,-669C1706,-669 1607,-669 1607,-669 1601,-669 1595,-663 1595,-657 1595,-657 1595,-627 1595,-627 1595,-621 1601,-615 1607,-615 1607,-615 1706,-615 1706,-615 1712,-615 1718,-621 1718,-627 1718,-627 1718,-657 1718,-657 1718,-663 1712,-669 1706,-669"/>
<text text-anchor="middle" x="1656.5" y="-656" font-family="Arial" font-size="10.00">save()</text>
<text text-anchor="middle" x="1656.5" y="-645" font-family="Arial" font-size="10.00">snapshot frames</text>
<text text-anchor="middle" x="1656.5" y="-634" font-family="Arial" font-size="10.00">write CSV</text>
<text text-anchor="middle" x="1656.5" y="-623" font-family="Arial" font-size="10.00">optional stimulus sidecar</text>
</g>
<!-- save&#45;&gt;c_save -->
<g id="edge12" class="edge">
<title>save&#45;&gt;c_save</title>
<path fill="none" stroke="#2563eb" stroke-width="1.2" d="M962.52,-784.75C1117.67,-784.75 1603.54,-784.75 1603.54,-784.75 1603.54,-784.75 1603.54,-676.69 1603.54,-676.69"/>
<polygon fill="#2563eb" stroke="#2563eb" stroke-width="1.2" points="1606.16,-676.69 1603.54,-669.19 1600.91,-676.69 1606.16,-676.69"/>
</g>
<!-- c_drain -->
<g id="node21" class="node">
<title>c_drain</title>
<path fill="#fef9c3" stroke="#ca8a04" stroke-width="1.2" d="M1235,-442C1235,-442 1151,-442 1151,-442 1145,-442 1139,-436 1139,-430 1139,-430 1139,-400 1139,-400 1139,-394 1145,-388 1151,-388 1151,-388 1235,-388 1235,-388 1241,-388 1247,-394 1247,-400 1247,-400 1247,-430 1247,-430 1247,-436 1241,-442 1235,-442"/>
<text text-anchor="middle" x="1193" y="-429" font-family="Arial" font-size="10.00">drain_queues()</text>
<text text-anchor="middle" x="1193" y="-418" font-family="Arial" font-size="10.00">log WorkerEvent</text>
<text text-anchor="middle" x="1193" y="-407" font-family="Arial" font-size="10.00">append SampleBatch</text>
<text text-anchor="middle" x="1193" y="-396" font-family="Arial" font-size="10.00">stop on error</text>
</g>
<!-- drain&#45;&gt;c_drain -->
<g id="edge13" class="edge">
<title>drain&#45;&gt;c_drain</title>
<path fill="none" stroke="#2563eb" stroke-width="1.2" d="M972.66,-437.5C972.66,-437.5 1131.24,-437.5 1131.24,-437.5"/>
<polygon fill="#2563eb" stroke="#2563eb" stroke-width="1.2" points="1131.24,-440.13 1138.74,-437.5 1131.24,-434.88 1131.24,-440.13"/>
</g>
<!-- c_shutdown -->
<g id="node22" class="node">
<title>c_shutdown</title>
<path fill="#dbeafe" stroke="#2563eb" stroke-width="1.2" d="M1226,-679.5C1226,-679.5 1160,-679.5 1160,-679.5 1154,-679.5 1148,-673.5 1148,-667.5 1148,-667.5 1148,-648.5 1148,-648.5 1148,-642.5 1154,-636.5 1160,-636.5 1160,-636.5 1226,-636.5 1226,-636.5 1232,-636.5 1238,-642.5 1238,-648.5 1238,-648.5 1238,-667.5 1238,-667.5 1238,-673.5 1232,-679.5 1226,-679.5"/>
<text text-anchor="middle" x="1193" y="-666.5" font-family="Arial" font-size="10.00">shutdown()</text>
<text text-anchor="middle" x="1193" y="-655.5" font-family="Arial" font-size="10.00">_stop_worker()</text>
<text text-anchor="middle" x="1193" y="-644.5" font-family="Arial" font-size="10.00">state=STOPPED</text>
</g>
<!-- shutdown&#45;&gt;c_shutdown -->
<g id="edge14" class="edge">
<title>shutdown&#45;&gt;c_shutdown</title>
<path fill="none" stroke="#2563eb" stroke-width="1.2" d="M947.06,-655C947.06,-655 1140.21,-655 1140.21,-655"/>
<polygon fill="#2563eb" stroke="#2563eb" stroke-width="1.2" points="1140.21,-657.63 1147.71,-655 1140.21,-652.38 1140.21,-657.63"/>
</g>
<!-- ctrl_state -->
<g id="node9" class="node">
<title>ctrl_state</title>
<path fill="#ccfbf1" stroke="#0f766e" stroke-width="1.2" d="M1966.77,-792C1966.77,-794.21 1947.5,-796 1923.77,-796 1900.04,-796 1880.77,-794.21 1880.77,-792 1880.77,-792 1880.77,-756 1880.77,-756 1880.77,-753.79 1900.04,-752 1923.77,-752 1947.5,-752 1966.77,-753.79 1966.77,-756 1966.77,-756 1966.77,-792 1966.77,-792"/>
<path fill="none" stroke="#0f766e" stroke-width="1.2" d="M1966.77,-792C1966.77,-789.79 1947.5,-788 1923.77,-788 1900.04,-788 1880.77,-789.79 1880.77,-792"/>
<text text-anchor="middle" x="1923.77" y="-777" font-family="Arial" font-size="10.00">state</text>
<text text-anchor="middle" x="1923.77" y="-766" font-family="Arial" font-size="10.00">AcquisitionState</text>
</g>
<!-- ctrl_buffer -->
<g id="node11" class="node">
<title>ctrl_buffer</title>
<path fill="#ccfbf1" stroke="#0f766e" stroke-width="1.2" d="M1957.27,-580C1957.27,-582.21 1942.25,-584 1923.77,-584 1905.28,-584 1890.27,-582.21 1890.27,-580 1890.27,-580 1890.27,-544 1890.27,-544 1890.27,-541.79 1905.28,-540 1923.77,-540 1942.25,-540 1957.27,-541.79 1957.27,-544 1957.27,-544 1957.27,-580 1957.27,-580"/>
<path fill="none" stroke="#0f766e" stroke-width="1.2" d="M1957.27,-580C1957.27,-577.79 1942.25,-576 1923.77,-576 1905.28,-576 1890.27,-577.79 1890.27,-580"/>
<text text-anchor="middle" x="1923.77" y="-565" font-family="Arial" font-size="10.00">buffer</text>
<text text-anchor="middle" x="1923.77" y="-554" font-family="Arial" font-size="10.00">SignalBuffer</text>
</g>
<!-- dep_buffer -->
<g id="node40" class="node">
<title>dep_buffer</title>
<path fill="#f8fafc" stroke="#334155" stroke-width="1.2" d="M2209.04,-493C2209.04,-493 2107.04,-493 2107.04,-493 2101.04,-493 2095.04,-487 2095.04,-481 2095.04,-481 2095.04,-469 2095.04,-469 2095.04,-463 2101.04,-457 2107.04,-457 2107.04,-457 2209.04,-457 2209.04,-457 2215.04,-457 2221.04,-463 2221.04,-469 2221.04,-469 2221.04,-481 2221.04,-481 2221.04,-487 2215.04,-493 2209.04,-493"/>
<text text-anchor="middle" x="2158.04" y="-478" font-family="Arial" font-size="10.00">fundamental.signal_buffer</text>
<text text-anchor="middle" x="2158.04" y="-467" font-family="Arial" font-size="10.00">SignalBuffer</text>
</g>
<!-- ctrl_buffer&#45;&gt;dep_buffer -->
<g id="edge54" class="edge">
<title>ctrl_buffer&#45;&gt;dep_buffer</title>
<path fill="none" stroke="#94a3b8" stroke-width="1.2" stroke-dasharray="1,5" d="M1957.41,-562C2022.32,-562 2158.54,-562 2158.54,-562 2158.54,-562 2158.54,-500.53 2158.54,-500.53"/>
<polygon fill="#94a3b8" stroke="#94a3b8" stroke-width="1.2" points="2161.16,-500.53 2158.54,-493.03 2155.91,-500.53 2161.16,-500.53"/>
</g>
<!-- ctrl_save_path -->
<g id="node12" class="node">
<title>ctrl_save_path</title>
<path fill="#ccfbf1" stroke="#0f766e" stroke-width="1.2" d="M1964.27,-648.73C1964.27,-650.53 1946.12,-652 1923.77,-652 1901.42,-652 1883.27,-650.53 1883.27,-648.73 1883.27,-648.73 1883.27,-619.27 1883.27,-619.27 1883.27,-617.47 1901.42,-616 1923.77,-616 1946.12,-616 1964.27,-617.47 1964.27,-619.27 1964.27,-619.27 1964.27,-648.73 1964.27,-648.73"/>
<path fill="none" stroke="#0f766e" stroke-width="1.2" d="M1964.27,-648.73C1964.27,-646.92 1946.12,-645.45 1923.77,-645.45 1901.42,-645.45 1883.27,-646.92 1883.27,-648.73"/>
<text text-anchor="middle" x="1923.77" y="-631.5" font-family="Arial" font-size="10.00">last_save_path</text>
</g>
<!-- data_queue -->
<g id="node13" class="node">
<title>data_queue</title>
<polygon fill="#ecfeff" stroke="#0891b2" stroke-width="1.2" points="1977.77,-424 1974.77,-428 1953.77,-428 1950.77,-424 1869.77,-424 1869.77,-388 1977.77,-388 1977.77,-424"/>
<text text-anchor="middle" x="1923.77" y="-409" font-family="Arial" font-size="10.00">data_queue</text>
<text text-anchor="middle" x="1923.77" y="-398" font-family="Arial" font-size="10.00">Queue[SampleBatch]</text>
</g>
<!-- dep_queue -->
<g id="node43" class="node">
<title>dep_queue</title>
<path fill="#f8fafc" stroke="#334155" stroke-width="1.2" d="M2182.04,-357C2182.04,-357 2134.04,-357 2134.04,-357 2128.04,-357 2122.04,-351 2122.04,-345 2122.04,-345 2122.04,-333 2122.04,-333 2122.04,-327 2128.04,-321 2134.04,-321 2134.04,-321 2182.04,-321 2182.04,-321 2188.04,-321 2194.04,-327 2194.04,-333 2194.04,-333 2194.04,-345 2194.04,-345 2194.04,-351 2188.04,-357 2182.04,-357"/>
<text text-anchor="middle" x="2158.04" y="-336.5" font-family="Arial" font-size="10.00">queue.Queue</text>
</g>
<!-- data_queue&#45;&gt;dep_queue -->
<g id="edge57" class="edge">
<title>data_queue&#45;&gt;dep_queue</title>
<path fill="none" stroke="#94a3b8" stroke-width="1.2" stroke-dasharray="1,5" d="M1973.54,-387.75C1973.54,-369.83 1973.54,-345.17 1973.54,-345.17 1973.54,-345.17 2114.53,-345.17 2114.53,-345.17"/>
<polygon fill="#94a3b8" stroke="#94a3b8" stroke-width="1.2" points="2114.53,-347.79 2122.03,-345.17 2114.53,-342.54 2114.53,-347.79"/>
</g>
<!-- event_queue -->
<g id="node14" class="node">
<title>event_queue</title>
<polygon fill="#fef3c7" stroke="#d97706" stroke-width="1.2" points="1476,-424 1473,-428 1452,-428 1449,-424 1371,-424 1371,-388 1476,-388 1476,-424"/>
<text text-anchor="middle" x="1423.5" y="-409" font-family="Arial" font-size="10.00">event_queue</text>
<text text-anchor="middle" x="1423.5" y="-398" font-family="Arial" font-size="10.00">Queue[WorkerEvent]</text>
</g>
<!-- event_queue&#45;&gt;dep_queue -->
<g id="edge58" class="edge">
<title>event_queue&#45;&gt;dep_queue</title>
<path fill="none" stroke="#94a3b8" stroke-width="1.2" stroke-dasharray="1,5" d="M1441.54,-387.66C1441.54,-366.14 1441.54,-333.33 1441.54,-333.33 1441.54,-333.33 2114.52,-333.33 2114.52,-333.33"/>
<polygon fill="#94a3b8" stroke="#94a3b8" stroke-width="1.2" points="2114.52,-335.96 2122.02,-333.33 2114.52,-330.71 2114.52,-335.96"/>
</g>
<!-- stop_event -->
<g id="node15" class="node">
<title>stop_event</title>
<path fill="#fee2e2" stroke="#dc2626" stroke-width="1.2" d="M1981.84,-489.37C1981.84,-489.37 1967.01,-500.89 1967.01,-500.89 1962.28,-504.57 1951.54,-508.26 1945.54,-508.26 1945.54,-508.26 1902,-508.26 1902,-508.26 1896,-508.26 1885.26,-504.57 1880.53,-500.89 1880.53,-500.89 1865.7,-489.37 1865.7,-489.37 1860.97,-485.68 1860.97,-478.32 1865.7,-474.63 1865.7,-474.63 1880.53,-463.11 1880.53,-463.11 1885.26,-459.43 1896,-455.74 1902,-455.74 1902,-455.74 1945.54,-455.74 1945.54,-455.74 1951.54,-455.74 1962.28,-459.43 1967.01,-463.11 1967.01,-463.11 1981.84,-474.63 1981.84,-474.63 1986.57,-478.32 1986.57,-485.68 1981.84,-489.37"/>
<text text-anchor="middle" x="1923.77" y="-485" font-family="Arial" font-size="10.00">stop_event</text>
<text text-anchor="middle" x="1923.77" y="-474" font-family="Arial" font-size="10.00">threading.Event</text>
</g>
<!-- dep_thread -->
<g id="node42" class="node">
<title>dep_thread</title>
<path fill="#f8fafc" stroke="#334155" stroke-width="1.2" d="M2185.54,-425C2185.54,-425 2130.54,-425 2130.54,-425 2124.54,-425 2118.54,-419 2118.54,-413 2118.54,-413 2118.54,-401 2118.54,-401 2118.54,-395 2124.54,-389 2130.54,-389 2130.54,-389 2185.54,-389 2185.54,-389 2191.54,-389 2197.54,-395 2197.54,-401 2197.54,-401 2197.54,-413 2197.54,-413 2197.54,-419 2191.54,-425 2185.54,-425"/>
<text text-anchor="middle" x="2158.04" y="-410" font-family="Arial" font-size="10.00">threading</text>
<text text-anchor="middle" x="2158.04" y="-399" font-family="Arial" font-size="10.00">Thread / Event</text>
</g>
<!-- stop_event&#45;&gt;dep_thread -->
<g id="edge56" class="edge">
<title>stop_event&#45;&gt;dep_thread</title>
<path fill="none" stroke="#94a3b8" stroke-width="1.2" stroke-dasharray="1,5" d="M1985.54,-477.5C1985.54,-461.25 1985.54,-406.5 1985.54,-406.5 1985.54,-406.5 2110.96,-406.5 2110.96,-406.5"/>
<polygon fill="#94a3b8" stroke="#94a3b8" stroke-width="1.2" points="2110.96,-409.13 2118.46,-406.5 2110.96,-403.88 2110.96,-409.13"/>
</g>
<!-- worker_ref -->
<g id="node16" class="node">
<title>worker_ref</title>
<polygon fill="#f1f5f9" stroke="#334155" stroke-width="1.2" points="1974.77,-864 1872.77,-864 1872.77,-860 1868.77,-860 1868.77,-856 1872.77,-856 1872.77,-836 1868.77,-836 1868.77,-832 1872.77,-832 1872.77,-828 1974.77,-828 1974.77,-864"/>
<polyline fill="none" stroke="#334155" stroke-width="1.2" points="1872.77,-860 1876.77,-860 1876.77,-856 1872.77,-856 "/>
<polyline fill="none" stroke="#334155" stroke-width="1.2" points="1872.77,-836 1876.77,-836 1876.77,-832 1872.77,-832 "/>
<text text-anchor="middle" x="1923.77" y="-849" font-family="Arial" font-size="10.00">worker</text>
<text text-anchor="middle" x="1923.77" y="-838" font-family="Arial" font-size="10.00">SerialWorker | None</text>
</g>
<!-- w_init -->
<g id="node26" class="node">
<title>w_init</title>
<path fill="#f3e8ff" stroke="#7c3aed" stroke-width="1.2" d="M118.5,-219C118.5,-219 37.5,-219 37.5,-219 31.5,-219 25.5,-213 25.5,-207 25.5,-207 25.5,-177 25.5,-177 25.5,-171 31.5,-165 37.5,-165 37.5,-165 118.5,-165 118.5,-165 124.5,-165 130.5,-171 130.5,-177 130.5,-177 130.5,-207 130.5,-207 130.5,-213 124.5,-219 118.5,-219"/>
<text text-anchor="middle" x="78" y="-206" font-family="Arial" font-size="10.00">__init__()</text>
<text text-anchor="middle" x="78" y="-195" font-family="Arial" font-size="10.00">normalize config</text>
<text text-anchor="middle" x="78" y="-184" font-family="Arial" font-size="10.00">keep queues</text>
<text text-anchor="middle" x="78" y="-173" font-family="Arial" font-size="10.00">set timing origin args</text>
</g>
<!-- worker_ref&#45;&gt;w_init -->
<g id="edge34" class="edge">
<title>worker_ref&#45;&gt;w_init</title>
<path fill="none" stroke="#2563eb" stroke-width="1.2" d="M1872.56,-838.5C1587.83,-838.5 212.54,-838.5 212.54,-838.5 212.54,-838.5 212.54,-198 212.54,-198 212.54,-198 138.29,-198 138.29,-198"/>
<polygon fill="#2563eb" stroke="#2563eb" stroke-width="1.2" points="138.29,-195.38 130.79,-198 138.29,-200.63 138.29,-195.38"/>
<text text-anchor="middle" x="915.5" y="-956.8" font-family="Arial" font-size="9.00">construct</text>
</g>
<!-- c_start&#45;&gt;ctrl_state -->
<g id="edge15" class="edge">
<title>c_start&#45;&gt;ctrl_state</title>
<path fill="none" stroke="#2563eb" stroke-width="1.2" d="M1701.54,-756.83C1701.54,-756.83 1873.26,-756.83 1873.26,-756.83"/>
<polygon fill="#2563eb" stroke="#2563eb" stroke-width="1.2" points="1873.26,-759.46 1880.76,-756.83 1873.26,-754.21 1873.26,-759.46"/>
</g>
<!-- c_start&#45;&gt;ctrl_buffer -->
<g id="edge16" class="edge">
<title>c_start&#45;&gt;ctrl_buffer</title>
<path fill="none" stroke="#2563eb" stroke-width="1.2" d="M1701.6,-705.2C1739.5,-705.2 1787.54,-705.2 1787.54,-705.2 1787.54,-705.2 1787.54,-576 1787.54,-576 1787.54,-576 1882.59,-576 1882.59,-576"/>
<polygon fill="#2563eb" stroke="#2563eb" stroke-width="1.2" points="1882.59,-578.63 1890.09,-576 1882.59,-573.38 1882.59,-578.63"/>
</g>
<!-- c_start&#45;&gt;ctrl_save_path -->
<g id="edge17" class="edge">
<title>c_start&#45;&gt;ctrl_save_path</title>
<path fill="none" stroke="#2563eb" stroke-width="1.2" d="M1701.87,-708.9C1751.03,-708.9 1822.54,-708.9 1822.54,-708.9 1822.54,-708.9 1822.54,-643 1822.54,-643 1822.54,-643 1875.68,-643 1875.68,-643"/>
<polygon fill="#2563eb" stroke="#2563eb" stroke-width="1.2" points="1875.68,-645.63 1883.18,-643 1875.68,-640.38 1875.68,-645.63"/>
</g>
<!-- c_start&#45;&gt;stop_event -->
<g id="edge19" class="edge">
<title>c_start&#45;&gt;stop_event</title>
<path fill="none" stroke="#2563eb" stroke-width="1.2" d="M1701.51,-712.6C1763.49,-712.6 1867.54,-712.6 1867.54,-712.6 1867.54,-712.6 1867.54,-498.54 1867.54,-498.54"/>
<polygon fill="#2563eb" stroke="#2563eb" stroke-width="1.2" points="1870.16,-498.54 1867.54,-491.04 1864.91,-498.54 1870.16,-498.54"/>
</g>
<!-- c_start&#45;&gt;worker_ref -->
<g id="edge20" class="edge">
<title>c_start&#45;&gt;worker_ref</title>
<path fill="none" stroke="#2563eb" stroke-width="1.2" d="M1701.76,-761.67C1766.43,-761.67 1877.54,-761.67 1877.54,-761.67 1877.54,-761.67 1877.54,-820.2 1877.54,-820.2"/>
<polygon fill="#2563eb" stroke="#2563eb" stroke-width="1.2" points="1874.91,-820.2 1877.54,-827.7 1880.16,-820.2 1874.91,-820.2"/>
</g>
<!-- clear_queues -->
<g id="node24" class="node">
<title>clear_queues</title>
<path fill="#f1f5f9" stroke="#334155" stroke-width="1.2" d="M1953.77,-720C1953.77,-720 1893.77,-720 1893.77,-720 1887.77,-720 1881.77,-714 1881.77,-708 1881.77,-708 1881.77,-696 1881.77,-696 1881.77,-690 1887.77,-684 1893.77,-684 1893.77,-684 1953.77,-684 1953.77,-684 1959.77,-684 1965.77,-690 1965.77,-696 1965.77,-696 1965.77,-708 1965.77,-708 1965.77,-714 1959.77,-720 1953.77,-720"/>
<text text-anchor="middle" x="1923.77" y="-705" font-family="Arial" font-size="10.00">_clear_queues()</text>
<text text-anchor="middle" x="1923.77" y="-694" font-family="Arial" font-size="10.00">_drain_queue()</text>
</g>
<!-- c_start&#45;&gt;clear_queues -->
<g id="edge18" class="edge">
<title>c_start&#45;&gt;clear_queues</title>
<path fill="none" stroke="#2563eb" stroke-width="1.2" d="M1701.54,-716.3C1701.54,-716.3 1874.14,-716.3 1874.14,-716.3"/>
<polygon fill="#2563eb" stroke="#2563eb" stroke-width="1.2" points="1874.14,-718.93 1881.64,-716.3 1874.14,-713.68 1874.14,-718.93"/>
</g>
<!-- stop_worker -->
<g id="node23" class="node">
<title>stop_worker</title>
<path fill="#f1f5f9" stroke="#334155" stroke-width="1.2" d="M1462.5,-680.5C1462.5,-680.5 1384.5,-680.5 1384.5,-680.5 1378.5,-680.5 1372.5,-674.5 1372.5,-668.5 1372.5,-668.5 1372.5,-627.5 1372.5,-627.5 1372.5,-621.5 1378.5,-615.5 1384.5,-615.5 1384.5,-615.5 1462.5,-615.5 1462.5,-615.5 1468.5,-615.5 1474.5,-621.5 1474.5,-627.5 1474.5,-627.5 1474.5,-668.5 1474.5,-668.5 1474.5,-674.5 1468.5,-680.5 1462.5,-680.5"/>
<text text-anchor="middle" x="1423.5" y="-667.5" font-family="Arial" font-size="10.00">_stop_worker()</text>
<text text-anchor="middle" x="1423.5" y="-656.5" font-family="Arial" font-size="10.00">set stop_event</text>
<text text-anchor="middle" x="1423.5" y="-645.5" font-family="Arial" font-size="10.00">join worker</text>
<text text-anchor="middle" x="1423.5" y="-634.5" font-family="Arial" font-size="10.00">clear refs</text>
<text text-anchor="middle" x="1423.5" y="-623.5" font-family="Arial" font-size="10.00">drain remaining data</text>
</g>
<!-- c_pause&#45;&gt;stop_worker -->
<g id="edge21" class="edge">
<title>c_pause&#45;&gt;stop_worker</title>
<path fill="none" stroke="#2563eb" stroke-width="1.2" d="M1231.54,-528.28C1231.54,-564.48 1231.54,-623.9 1231.54,-623.9 1231.54,-623.9 1364.81,-623.9 1364.81,-623.9"/>
<polygon fill="#2563eb" stroke="#2563eb" stroke-width="1.2" points="1364.81,-626.53 1372.31,-623.9 1364.81,-621.28 1364.81,-626.53"/>
</g>
<!-- c_stop&#45;&gt;stop_worker -->
<g id="edge22" class="edge">
<title>c_stop&#45;&gt;stop_worker</title>
<path fill="none" stroke="#2563eb" stroke-width="1.2" d="M1238.27,-739C1305.41,-739 1423.54,-739 1423.54,-739 1423.54,-739 1423.54,-688.1 1423.54,-688.1"/>
<polygon fill="#2563eb" stroke="#2563eb" stroke-width="1.2" points="1426.16,-688.1 1423.54,-680.6 1420.91,-688.1 1426.16,-688.1"/>
</g>
<!-- c_save&#45;&gt;ctrl_buffer -->
<g id="edge32" class="edge">
<title>c_save&#45;&gt;ctrl_buffer</title>
<path fill="none" stroke="#16a34a" stroke-width="1.2" d="M1656.54,-614.87C1656.54,-593.75 1656.54,-568 1656.54,-568 1656.54,-568 1882.69,-568 1882.69,-568"/>
<polygon fill="#16a34a" stroke="#16a34a" stroke-width="1.2" points="1882.69,-570.63 1890.19,-568 1882.69,-565.38 1882.69,-570.63"/>
<text text-anchor="middle" x="1787.5" y="-629.8" font-family="Arial" font-size="9.00">snapshot</text>
</g>
<!-- c_save&#45;&gt;ctrl_save_path -->
<g id="edge33" class="edge">
<title>c_save&#45;&gt;ctrl_save_path</title>
<path fill="none" stroke="#16a34a" stroke-width="1.2" d="M1718.15,-634C1718.15,-634 1875.68,-634 1875.68,-634"/>
<polygon fill="#16a34a" stroke="#16a34a" stroke-width="1.2" points="1875.68,-636.63 1883.18,-634 1875.68,-631.38 1875.68,-636.63"/>
<text text-anchor="middle" x="1787.5" y="-683.8" font-family="Arial" font-size="9.00">update</text>
</g>
<!-- dep_csv -->
<g id="node41" class="node">
<title>dep_csv</title>
<path fill="#f8fafc" stroke="#334155" stroke-width="1.2" d="M2204.04,-289C2204.04,-289 2112.04,-289 2112.04,-289 2106.04,-289 2100.04,-283 2100.04,-277 2100.04,-277 2100.04,-247 2100.04,-247 2100.04,-241 2106.04,-235 2112.04,-235 2112.04,-235 2204.04,-235 2204.04,-235 2210.04,-235 2216.04,-241 2216.04,-247 2216.04,-247 2216.04,-277 2216.04,-277 2216.04,-283 2210.04,-289 2204.04,-289"/>
<text text-anchor="middle" x="2158.04" y="-276" font-family="Arial" font-size="10.00">fundamental.csv_writer</text>
<text text-anchor="middle" x="2158.04" y="-265" font-family="Arial" font-size="10.00">save_frames()</text>
<text text-anchor="middle" x="2158.04" y="-254" font-family="Arial" font-size="10.00">save_stimulus_log()</text>
<text text-anchor="middle" x="2158.04" y="-243" font-family="Arial" font-size="10.00">default_capture_path()</text>
</g>
<!-- c_save&#45;&gt;dep_csv -->
<g id="edge55" class="edge">
<title>c_save&#45;&gt;dep_csv</title>
<path fill="none" stroke="#94a3b8" stroke-width="1.2" stroke-dasharray="1,5" d="M1718.23,-625C1737.37,-625 1753.54,-625 1753.54,-625 1753.54,-625 1753.54,-272.75 1753.54,-272.75 1753.54,-272.75 2092.15,-272.75 2092.15,-272.75"/>
<polygon fill="#94a3b8" stroke="#94a3b8" stroke-width="1.2" points="2092.15,-275.38 2099.65,-272.75 2092.15,-270.13 2092.15,-275.38"/>
</g>
<!-- c_drain&#45;&gt;ui -->
<g id="edge49" class="edge">
<title>c_drain&#45;&gt;ui</title>
<path fill="none" stroke="#ea580c" stroke-width="1.2" stroke-dasharray="5,2" d="M1131,-612.5C1064.12,-612.5 752.31,-612.5 752.31,-612.5"/>
<polygon fill="#ea580c" stroke="#ea580c" stroke-width="1.2" points="752.31,-609.88 744.81,-612.5 752.31,-615.13 752.31,-609.88"/>
<text text-anchor="middle" x="915.5" y="-393.8" font-family="Arial" font-size="9.00">log_sink(message)</text>
</g>
<!-- c_drain&#45;&gt;ctrl_buffer -->
<g id="edge30" class="edge">
<title>c_drain&#45;&gt;ctrl_buffer</title>
<path fill="none" stroke="#0f766e" stroke-width="1.2" d="M1244.54,-442.23C1244.54,-482.83 1244.54,-554.5 1244.54,-554.5 1244.54,-554.5 1882.59,-554.5 1882.59,-554.5"/>
<polygon fill="#0f766e" stroke="#0f766e" stroke-width="1.2" points="1882.59,-557.13 1890.09,-554.5 1882.59,-551.88 1882.59,-557.13"/>
<text text-anchor="middle" x="1535" y="-584.8" font-family="Arial" font-size="9.00">append_batch</text>
</g>
<!-- c_drain&#45;&gt;data_queue -->
<g id="edge29" class="edge">
<title>c_drain&#45;&gt;data_queue</title>
<path fill="none" stroke="#0f766e" stroke-width="1.2" d="M1247.09,-433.5C1416.33,-433.5 1924.54,-433.5 1924.54,-433.5 1924.54,-433.5 1924.54,-431.69 1924.54,-431.69"/>
<polygon fill="#0f766e" stroke="#0f766e" stroke-width="1.2" points="1927.16,-431.69 1924.54,-424.19 1921.91,-431.69 1927.16,-431.69"/>
<text text-anchor="middle" x="1535" y="-440.8" font-family="Arial" font-size="9.00">get</text>
</g>
<!-- c_drain&#45;&gt;event_queue -->
<g id="edge28" class="edge">
<title>c_drain&#45;&gt;event_queue</title>
<path fill="none" stroke="#ea580c" stroke-width="1.2" stroke-dasharray="5,2" d="M1247.04,-406C1247.04,-406 1363.49,-406 1363.49,-406"/>
<polygon fill="#ea580c" stroke="#ea580c" stroke-width="1.2" points="1363.49,-408.63 1370.99,-406 1363.49,-403.38 1363.49,-408.63"/>
<text text-anchor="middle" x="1315.5" y="-422.8" font-family="Arial" font-size="9.00">get</text>
</g>
<!-- c_drain&#45;&gt;stop_worker -->
<g id="edge31" class="edge">
<title>c_drain&#45;&gt;stop_worker</title>
<path fill="none" stroke="#ea580c" stroke-width="1.2" stroke-dasharray="5,2" d="M1241.54,-442.18C1241.54,-497.86 1241.54,-619.7 1241.54,-619.7 1241.54,-619.7 1364.83,-619.7 1364.83,-619.7"/>
<polygon fill="#ea580c" stroke="#ea580c" stroke-width="1.2" points="1364.83,-622.33 1372.33,-619.7 1364.83,-617.08 1364.83,-622.33"/>
<text text-anchor="middle" x="1315.5" y="-628.8" font-family="Arial" font-size="9.00">on error</text>
</g>
<!-- c_shutdown&#45;&gt;stop_worker -->
<g id="edge23" class="edge">
<title>c_shutdown&#45;&gt;stop_worker</title>
<path fill="none" stroke="#2563eb" stroke-width="1.2" d="M1238.26,-658C1238.26,-658 1364.82,-658 1364.82,-658"/>
<polygon fill="#2563eb" stroke="#2563eb" stroke-width="1.2" points="1364.82,-660.63 1372.32,-658 1364.82,-655.38 1364.82,-660.63"/>
</g>
<!-- stop_worker&#45;&gt;stop_event -->
<g id="edge24" class="edge">
<title>stop_worker&#45;&gt;stop_event</title>
<path fill="none" stroke="#dc2626" stroke-width="1.2" d="M1474.72,-674.75C1590.54,-674.75 1862.54,-674.75 1862.54,-674.75 1862.54,-674.75 1862.54,-494.66 1862.54,-494.66"/>
<polygon fill="#dc2626" stroke="#dc2626" stroke-width="1.2" points="1865.16,-494.66 1862.54,-487.16 1859.91,-494.66 1865.16,-494.66"/>
<text text-anchor="middle" x="1656.5" y="-473.8" font-family="Arial" font-size="9.00">set</text>
</g>
<!-- drain_data -->
<g id="node25" class="node">
<title>drain_data</title>
<path fill="#f1f5f9" stroke="#334155" stroke-width="1.2" d="M1707,-549C1707,-549 1606,-549 1606,-549 1600,-549 1594,-543 1594,-537 1594,-537 1594,-525 1594,-525 1594,-519 1600,-513 1606,-513 1606,-513 1707,-513 1707,-513 1713,-513 1719,-519 1719,-525 1719,-525 1719,-537 1719,-537 1719,-543 1713,-549 1707,-549"/>
<text text-anchor="middle" x="1656.5" y="-534" font-family="Arial" font-size="10.00">_drain_data_queue()</text>
<text text-anchor="middle" x="1656.5" y="-523" font-family="Arial" font-size="10.00">append leftovers to buffer</text>
</g>
<!-- stop_worker&#45;&gt;drain_data -->
<g id="edge25" class="edge">
<title>stop_worker&#45;&gt;drain_data</title>
<path fill="none" stroke="#2563eb" stroke-width="1.2" d="M1423.54,-615.35C1423.54,-584.53 1423.54,-543 1423.54,-543 1423.54,-543 1586.26,-543 1586.26,-543"/>
<polygon fill="#2563eb" stroke="#2563eb" stroke-width="1.2" points="1586.26,-545.63 1593.76,-543 1586.26,-540.38 1586.26,-545.63"/>
</g>
<!-- drain_data&#45;&gt;ctrl_buffer -->
<g id="edge27" class="edge">
<title>drain_data&#45;&gt;ctrl_buffer</title>
<path fill="none" stroke="#0f766e" stroke-width="1.2" d="M1719.16,-544.5C1719.16,-544.5 1882.53,-544.5 1882.53,-544.5"/>
<polygon fill="#0f766e" stroke="#0f766e" stroke-width="1.2" points="1882.53,-547.13 1890.03,-544.5 1882.53,-541.88 1882.53,-547.13"/>
<text text-anchor="middle" x="1787.5" y="-548.8" font-family="Arial" font-size="9.00">append</text>
</g>
<!-- drain_data&#45;&gt;data_queue -->
<g id="edge26" class="edge">
<title>drain_data&#45;&gt;data_queue</title>
<path fill="none" stroke="#0f766e" stroke-width="1.2" d="M1711.54,-512.82C1711.54,-478.16 1711.54,-406 1711.54,-406 1711.54,-406 1862.17,-406 1862.17,-406"/>
<polygon fill="#0f766e" stroke="#0f766e" stroke-width="1.2" points="1862.17,-408.63 1869.67,-406 1862.17,-403.38 1862.17,-408.63"/>
</g>
<!-- w_run -->
<g id="node27" class="node">
<title>w_run</title>
<path fill="#f3e8ff" stroke="#7c3aed" stroke-width="1.2" d="M311,-210C311,-210 281,-210 281,-210 275,-210 269,-204 269,-198 269,-198 269,-186 269,-186 269,-180 275,-174 281,-174 281,-174 311,-174 311,-174 317,-174 323,-180 323,-186 323,-186 323,-198 323,-198 323,-204 317,-210 311,-210"/>
<text text-anchor="middle" x="296" y="-189.5" font-family="Arial" font-size="10.00">run()</text>
</g>
<!-- w_init&#45;&gt;w_run -->
<g id="edge35" class="edge">
<title>w_init&#45;&gt;w_run</title>
<path fill="none" stroke="#2563eb" stroke-width="1.2" d="M130.77,-186C130.77,-186 261.41,-186 261.41,-186"/>
<polygon fill="#2563eb" stroke="#2563eb" stroke-width="1.2" points="261.41,-188.63 268.91,-186 261.41,-183.38 261.41,-188.63"/>
<text text-anchor="middle" x="212.5" y="-194.8" font-family="Arial" font-size="9.00">Thread.start()</text>
</g>
<!-- w_open -->
<g id="node28" class="node">
<title>w_open</title>
<path fill="#ede9fe" stroke="#7c3aed" stroke-width="1.2" d="M492,-143C492,-143 418,-143 418,-143 412,-143 406,-137 406,-131 406,-131 406,-119 406,-119 406,-113 412,-107 418,-107 418,-107 492,-107 492,-107 498,-107 504,-113 504,-119 504,-119 504,-131 504,-131 504,-137 498,-143 492,-143"/>
<text text-anchor="middle" x="455" y="-128" font-family="Arial" font-size="10.00">serial.Serial(...)</text>
<text text-anchor="middle" x="455" y="-117" font-family="Arial" font-size="10.00">reset_input_buffer()</text>
</g>
<!-- w_run&#45;&gt;w_open -->
<g id="edge36" class="edge">
<title>w_run&#45;&gt;w_open</title>
<path fill="none" stroke="#2563eb" stroke-width="1.2" d="M296.54,-173.69C296.54,-153.85 296.54,-125 296.54,-125 296.54,-125 398.23,-125 398.23,-125"/>
<polygon fill="#2563eb" stroke="#2563eb" stroke-width="1.2" points="398.23,-127.63 405.73,-125 398.23,-122.38 398.23,-127.63"/>
</g>
<!-- w_close -->
<g id="node35" class="node">
<title>w_close</title>
<path fill="#f3e8ff" stroke="#7c3aed" stroke-width="1.2" d="M604,-215C604,-215 545,-215 545,-215 539,-215 533,-209 533,-203 533,-203 533,-191 533,-191 533,-185 539,-179 545,-179 545,-179 604,-179 604,-179 610,-179 616,-185 616,-191 616,-191 616,-203 616,-203 616,-209 610,-215 604,-215"/>
<text text-anchor="middle" x="574.5" y="-194.5" font-family="Arial" font-size="10.00">_close_handle()</text>
</g>
<!-- w_run&#45;&gt;w_close -->
<g id="edge44" class="edge">
<title>w_run&#45;&gt;w_close</title>
<path fill="none" stroke="#2563eb" stroke-width="1.2" d="M323.21,-194.5C323.21,-194.5 525.29,-194.5 525.29,-194.5"/>
<polygon fill="#2563eb" stroke="#2563eb" stroke-width="1.2" points="525.29,-197.13 532.79,-194.5 525.29,-191.88 525.29,-197.13"/>
<text text-anchor="middle" x="364.5" y="-197.8" font-family="Arial" font-size="9.00">finally</text>
</g>
<!-- w_read -->
<g id="node29" class="node">
<title>w_read</title>
<path fill="#ede9fe" stroke="#7c3aed" stroke-width="1.2" d="M738,-143C738,-143 657,-143 657,-143 651,-143 645,-137 645,-131 645,-131 645,-119 645,-119 645,-113 651,-107 657,-107 657,-107 738,-107 738,-107 744,-107 750,-113 750,-119 750,-119 750,-131 750,-131 750,-137 744,-143 738,-143"/>
<text text-anchor="middle" x="697.5" y="-128" font-family="Arial" font-size="10.00">read(512)</text>
<text text-anchor="middle" x="697.5" y="-117" font-family="Arial" font-size="10.00">loop until stop_event</text>
</g>
<!-- w_open&#45;&gt;w_read -->
<g id="edge37" class="edge">
<title>w_open&#45;&gt;w_read</title>
<path fill="none" stroke="#2563eb" stroke-width="1.2" d="M504.07,-125C504.07,-125 637.22,-125 637.22,-125"/>
<polygon fill="#2563eb" stroke="#2563eb" stroke-width="1.2" points="637.22,-127.63 644.72,-125 637.22,-122.38 637.22,-127.63"/>
</g>
<!-- dep_serial -->
<g id="node37" class="node">
<title>dep_serial</title>
<path fill="#f8fafc" stroke="#334155" stroke-width="1.2" d="M2179.04,-52C2179.04,-52 2137.04,-52 2137.04,-52 2131.04,-52 2125.04,-46 2125.04,-40 2125.04,-40 2125.04,-28 2125.04,-28 2125.04,-22 2131.04,-16 2137.04,-16 2137.04,-16 2179.04,-16 2179.04,-16 2185.04,-16 2191.04,-22 2191.04,-28 2191.04,-28 2191.04,-40 2191.04,-40 2191.04,-46 2185.04,-52 2179.04,-52"/>
<text text-anchor="middle" x="2158.04" y="-37" font-family="Arial" font-size="10.00">pyserial</text>
<text text-anchor="middle" x="2158.04" y="-26" font-family="Arial" font-size="10.00">serial.Serial</text>
</g>
<!-- w_open&#45;&gt;dep_serial -->
<g id="edge50" class="edge">
<title>w_open&#45;&gt;dep_serial</title>
<path fill="none" stroke="#94a3b8" stroke-width="1.2" stroke-dasharray="1,5" d="M455.54,-106.58C455.54,-79.99 455.54,-34 455.54,-34 455.54,-34 2117.29,-34 2117.29,-34"/>
<polygon fill="#94a3b8" stroke="#94a3b8" stroke-width="1.2" points="2117.29,-36.63 2124.79,-34 2117.29,-31.38 2117.29,-36.63"/>
</g>
<!-- w_parse -->
<g id="node30" class="node">
<title>w_parse</title>
<path fill="#ede9fe" stroke="#7c3aed" stroke-width="1.2" d="M989,-111C989,-111 842,-111 842,-111 836,-111 830,-105 830,-99 830,-99 830,-87 830,-87 830,-81 836,-75 842,-75 842,-75 989,-75 989,-75 995,-75 1001,-81 1001,-87 1001,-87 1001,-99 1001,-99 1001,-105 995,-111 989,-111"/>
<text text-anchor="middle" x="915.5" y="-90.5" font-family="Arial" font-size="10.00">ADS1299StreamParser.feed(chunk)</text>
</g>
<!-- w_read&#45;&gt;w_parse -->
<g id="edge38" class="edge">
<title>w_read&#45;&gt;w_parse</title>
<path fill="none" stroke="#0f766e" stroke-width="1.2" d="M750.17,-119.75C792.36,-119.75 844.54,-119.75 844.54,-119.75 844.54,-119.75 844.54,-118.79 844.54,-118.79"/>
<polygon fill="#0f766e" stroke="#0f766e" stroke-width="1.2" points="847.16,-118.79 844.54,-111.29 841.91,-118.79 847.16,-118.79"/>
<text text-anchor="middle" x="790" y="-118.8" font-family="Arial" font-size="9.00">bytes</text>
</g>
<!-- w_event -->
<g id="node36" class="node">
<title>w_event</title>
<polygon fill="#ffedd5" stroke="#ea580c" stroke-width="1.2" points="1222.5,-208 1157.5,-208 1157.5,-172 1228.5,-172 1228.5,-202 1222.5,-208"/>
<polyline fill="none" stroke="#ea580c" stroke-width="1.2" points="1222.5,-208 1222.5,-202 "/>
<polyline fill="none" stroke="#ea580c" stroke-width="1.2" points="1228.5,-202 1222.5,-202 "/>
<text text-anchor="middle" x="1193" y="-193" font-family="Arial" font-size="10.00">WorkerEvent</text>
<text text-anchor="middle" x="1193" y="-182" font-family="Arial" font-size="10.00">log/error</text>
</g>
<!-- w_read&#45;&gt;w_event -->
<g id="edge47" class="edge">
<title>w_read&#45;&gt;w_event</title>
<path fill="none" stroke="#ea580c" stroke-width="1.2" stroke-dasharray="5,2" d="M750.12,-135.75C877.78,-135.75 1193.54,-135.75 1193.54,-135.75 1193.54,-135.75 1193.54,-164.44 1193.54,-164.44"/>
<polygon fill="#ea580c" stroke="#ea580c" stroke-width="1.2" points="1190.91,-164.44 1193.54,-171.94 1196.16,-164.44 1190.91,-164.44"/>
<text text-anchor="middle" x="915.5" y="-177.8" font-family="Arial" font-size="9.00">serial error</text>
</g>
<!-- w_time -->
<g id="node31" class="node">
<title>w_time</title>
<path fill="#ede9fe" stroke="#7c3aed" stroke-width="1.2" d="M1248,-128.5C1248,-128.5 1138,-128.5 1138,-128.5 1132,-128.5 1126,-122.5 1126,-116.5 1126,-116.5 1126,-97.5 1126,-97.5 1126,-91.5 1132,-85.5 1138,-85.5 1138,-85.5 1248,-85.5 1248,-85.5 1254,-85.5 1260,-91.5 1260,-97.5 1260,-97.5 1260,-116.5 1260,-116.5 1260,-122.5 1254,-128.5 1248,-128.5"/>
<text text-anchor="middle" x="1193" y="-115.5" font-family="Arial" font-size="10.00">_timestamp_for_counter()</text>
<text text-anchor="middle" x="1193" y="-104.5" font-family="Arial" font-size="10.00">SAMPLE_RATE_HZ</text>
<text text-anchor="middle" x="1193" y="-93.5" font-family="Arial" font-size="10.00">resume/regression handling</text>
</g>
<!-- w_parse&#45;&gt;w_time -->
<g id="edge39" class="edge">
<title>w_parse&#45;&gt;w_time</title>
<path fill="none" stroke="#0f766e" stroke-width="1.2" d="M1001.02,-98.25C1001.02,-98.25 1118.31,-98.25 1118.31,-98.25"/>
<polygon fill="#0f766e" stroke="#0f766e" stroke-width="1.2" points="1118.31,-100.88 1125.81,-98.25 1118.31,-95.63 1118.31,-100.88"/>
<text text-anchor="middle" x="1063.5" y="-109.8" font-family="Arial" font-size="9.00">ADS1299Frame</text>
</g>
<!-- w_parse&#45;&gt;w_event -->
<g id="edge48" class="edge">
<title>w_parse&#45;&gt;w_event</title>
<path fill="none" stroke="#ea580c" stroke-width="1.2" stroke-dasharray="5,2" d="M987.54,-111.45C987.54,-139.25 987.54,-188.67 987.54,-188.67 987.54,-188.67 1149.71,-188.67 1149.71,-188.67"/>
<polygon fill="#ea580c" stroke="#ea580c" stroke-width="1.2" points="1149.71,-191.29 1157.21,-188.67 1149.71,-186.04 1149.71,-191.29"/>
<text text-anchor="middle" x="1063.5" y="-159.8" font-family="Arial" font-size="9.00">resync/drop log</text>
</g>
<!-- dep_ads -->
<g id="node38" class="node">
<title>dep_ads</title>
<path fill="#f8fafc" stroke="#334155" stroke-width="1.2" d="M2227.54,-127.5C2227.54,-127.5 2088.54,-127.5 2088.54,-127.5 2082.54,-127.5 2076.54,-121.5 2076.54,-115.5 2076.54,-115.5 2076.54,-96.5 2076.54,-96.5 2076.54,-90.5 2082.54,-84.5 2088.54,-84.5 2088.54,-84.5 2227.54,-84.5 2227.54,-84.5 2233.54,-84.5 2239.54,-90.5 2239.54,-96.5 2239.54,-96.5 2239.54,-115.5 2239.54,-115.5 2239.54,-121.5 2233.54,-127.5 2227.54,-127.5"/>
<text text-anchor="middle" x="2158.04" y="-114.5" font-family="Arial" font-size="10.00">DeviceInterface.ads1299_protocol</text>
<text text-anchor="middle" x="2158.04" y="-103.5" font-family="Arial" font-size="10.00">ADS1299StreamParser</text>
<text text-anchor="middle" x="2158.04" y="-92.5" font-family="Arial" font-size="10.00">SAMPLE_RATE_HZ</text>
</g>
<!-- w_parse&#45;&gt;dep_ads -->
<g id="edge51" class="edge">
<title>w_parse&#45;&gt;dep_ads</title>
<path fill="none" stroke="#94a3b8" stroke-width="1.2" stroke-dasharray="1,5" d="M1001.27,-79.75C1273.71,-79.75 2101.54,-79.75 2101.54,-79.75 2101.54,-79.75 2101.54,-80.21 2101.54,-80.21"/>
<polygon fill="#94a3b8" stroke="#94a3b8" stroke-width="1.2" points="2098.91,-76.82 2101.54,-84.32 2104.16,-76.82 2098.91,-76.82"/>
</g>
<!-- w_frame -->
<g id="node32" class="node">
<title>w_frame</title>
<polygon fill="#faf5ff" stroke="#7c3aed" stroke-width="1.2" points="1470,-171 1371,-171 1371,-117 1476,-117 1476,-165 1470,-171"/>
<polyline fill="none" stroke="#7c3aed" stroke-width="1.2" points="1470,-171 1470,-165 "/>
<polyline fill="none" stroke="#7c3aed" stroke-width="1.2" points="1476,-165 1470,-165 "/>
<text text-anchor="middle" x="1423.5" y="-158" font-family="Arial" font-size="10.00">SampleFrame</text>
<text text-anchor="middle" x="1423.5" y="-147" font-family="Arial" font-size="10.00">(time_s, counter,</text>
<text text-anchor="middle" x="1423.5" y="-136" font-family="Arial" font-size="10.00">dropped, values,</text>
<text text-anchor="middle" x="1423.5" y="-125" font-family="Arial" font-size="10.00">emg_channel_count)</text>
</g>
<!-- w_time&#45;&gt;w_frame -->
<g id="edge40" class="edge">
<title>w_time&#45;&gt;w_frame</title>
<path fill="none" stroke="#0f766e" stroke-width="1.2" d="M1260.29,-122.75C1260.29,-122.75 1363.28,-122.75 1363.28,-122.75"/>
<polygon fill="#0f766e" stroke="#0f766e" stroke-width="1.2" points="1363.28,-125.38 1370.78,-122.75 1363.28,-120.13 1363.28,-125.38"/>
</g>
<!-- w_time&#45;&gt;dep_ads -->
<g id="edge52" class="edge">
<title>w_time&#45;&gt;dep_ads</title>
<path fill="none" stroke="#94a3b8" stroke-width="1.2" stroke-dasharray="1,5" d="M1260.09,-101.25C1260.09,-101.25 2068.85,-101.25 2068.85,-101.25"/>
<polygon fill="#94a3b8" stroke="#94a3b8" stroke-width="1.2" points="2068.85,-103.88 2076.35,-101.25 2068.85,-98.63 2068.85,-103.88"/>
</g>
<!-- w_batch -->
<g id="node33" class="node">
<title>w_batch</title>
<polygon fill="#faf5ff" stroke="#7c3aed" stroke-width="1.2" points="1704,-219 1701,-223 1680,-223 1677,-219 1609,-219 1609,-183 1704,-183 1704,-219"/>
<text text-anchor="middle" x="1656.5" y="-204" font-family="Arial" font-size="10.00">frames list</text>
<text text-anchor="middle" x="1656.5" y="-193" font-family="Arial" font-size="10.00">batch accumulator</text>
</g>
<!-- w_frame&#45;&gt;w_batch -->
<g id="edge41" class="edge">
<title>w_frame&#45;&gt;w_batch</title>
<path fill="none" stroke="#0f766e" stroke-width="1.2" d="M1476.09,-167.17C1544.82,-167.17 1656.54,-167.17 1656.54,-167.17 1656.54,-167.17 1656.54,-175.39 1656.54,-175.39"/>
<polygon fill="#0f766e" stroke="#0f766e" stroke-width="1.2" points="1653.91,-175.39 1656.54,-182.89 1659.16,-175.39 1653.91,-175.39"/>
</g>
<!-- dep_messages -->
<g id="node39" class="node">
<title>dep_messages</title>
<path fill="#f8fafc" stroke="#334155" stroke-width="1.2" d="M2215.04,-202.5C2215.04,-202.5 2101.04,-202.5 2101.04,-202.5 2095.04,-202.5 2089.04,-196.5 2089.04,-190.5 2089.04,-190.5 2089.04,-171.5 2089.04,-171.5 2089.04,-165.5 2095.04,-159.5 2101.04,-159.5 2101.04,-159.5 2215.04,-159.5 2215.04,-159.5 2221.04,-159.5 2227.04,-165.5 2227.04,-171.5 2227.04,-171.5 2227.04,-190.5 2227.04,-190.5 2227.04,-196.5 2221.04,-202.5 2215.04,-202.5"/>
<text text-anchor="middle" x="2158.04" y="-189.5" font-family="Arial" font-size="10.00">fundamental.messages</text>
<text text-anchor="middle" x="2158.04" y="-178.5" font-family="Arial" font-size="10.00">SerialConfig, SampleFrame,</text>
<text text-anchor="middle" x="2158.04" y="-167.5" font-family="Arial" font-size="10.00">SampleBatch, WorkerEvent</text>
</g>
<!-- w_frame&#45;&gt;dep_messages -->
<g id="edge53" class="edge">
<title>w_frame&#45;&gt;dep_messages</title>
<path fill="none" stroke="#94a3b8" stroke-width="1.2" stroke-dasharray="1,5" d="M1476.03,-163.33C1476.03,-163.33 2081.4,-163.33 2081.4,-163.33"/>
<polygon fill="#94a3b8" stroke="#94a3b8" stroke-width="1.2" points="2081.4,-165.96 2088.9,-163.33 2081.4,-160.71 2081.4,-165.96"/>
</g>
<!-- w_flush -->
<g id="node34" class="node">
<title>w_flush</title>
<path fill="#f3e8ff" stroke="#7c3aed" stroke-width="1.2" d="M1956.77,-219C1956.77,-219 1890.77,-219 1890.77,-219 1884.77,-219 1878.77,-213 1878.77,-207 1878.77,-207 1878.77,-195 1878.77,-195 1878.77,-189 1884.77,-183 1890.77,-183 1890.77,-183 1956.77,-183 1956.77,-183 1962.77,-183 1968.77,-189 1968.77,-195 1968.77,-195 1968.77,-207 1968.77,-207 1968.77,-213 1962.77,-219 1956.77,-219"/>
<text text-anchor="middle" x="1923.77" y="-204" font-family="Arial" font-size="10.00">_flush(frames)</text>
<text text-anchor="middle" x="1923.77" y="-193" font-family="Arial" font-size="10.00">put SampleBatch</text>
</g>
<!-- w_batch&#45;&gt;w_flush -->
<g id="edge42" class="edge">
<title>w_batch&#45;&gt;w_flush</title>
<path fill="none" stroke="#0f766e" stroke-width="1.2" d="M1704.28,-201C1704.28,-201 1871.13,-201 1871.13,-201"/>
<polygon fill="#0f766e" stroke="#0f766e" stroke-width="1.2" points="1871.13,-203.63 1878.63,-201 1871.13,-198.38 1871.13,-203.63"/>
<text text-anchor="middle" x="1787.5" y="-203.8" font-family="Arial" font-size="9.00">max batch / timeout</text>
</g>
<!-- w_flush&#45;&gt;data_queue -->
<g id="edge43" class="edge">
<title>w_flush&#45;&gt;data_queue</title>
<path fill="none" stroke="#0f766e" stroke-width="1.2" d="M1924.54,-219.19C1924.54,-219.19 1924.54,-339.16 1924.54,-372.08"/>
<polygon fill="#0f766e" stroke="#0f766e" stroke-width="1.2" points="1921.91,-372.5 1924.54,-380 1927.16,-372.5 1921.91,-372.5"/>
</g>
<!-- w_close&#45;&gt;w_event -->
<g id="edge45" class="edge">
<title>w_close&#45;&gt;w_event</title>
<path fill="none" stroke="#ea580c" stroke-width="1.2" stroke-dasharray="5,2" d="M616.04,-198.33C616.04,-198.33 1149.65,-198.33 1149.65,-198.33"/>
<polygon fill="#ea580c" stroke="#ea580c" stroke-width="1.2" points="1149.65,-200.96 1157.15,-198.33 1149.65,-195.71 1149.65,-200.96"/>
</g>
<!-- w_event&#45;&gt;event_queue -->
<g id="edge46" class="edge">
<title>w_event&#45;&gt;event_queue</title>
<path fill="none" stroke="#ea580c" stroke-width="1.2" stroke-dasharray="5,2" d="M1228.74,-195.5C1289.53,-195.5 1406.54,-195.5 1406.54,-195.5 1406.54,-195.5 1406.54,-336.68 1406.54,-372.17"/>
<polygon fill="#ea580c" stroke="#ea580c" stroke-width="1.2" points="1403.91,-372.5 1406.54,-380 1409.16,-372.5 1403.91,-372.5"/>
<text text-anchor="middle" x="1315.5" y="-283.8" font-family="Arial" font-size="9.00">WorkerEvent</text>
</g>
<!-- legend -->
<g id="node44" class="node">
<title>legend</title>
<polygon fill="#ffffff" stroke="#64748b" stroke-width="1.2" points="150,-321.5 0,-321.5 0,-256.5 156,-256.5 156,-315.5 150,-321.5"/>
<polyline fill="none" stroke="#64748b" stroke-width="1.2" points="150,-321.5 150,-315.5 "/>
<polyline fill="none" stroke="#64748b" stroke-width="1.2" points="156,-315.5 150,-315.5 "/>
<text text-anchor="middle" x="78" y="-308.5" font-family="Arial" font-size="10.00">Legend</text>
<text text-anchor="middle" x="78" y="-297.5" font-family="Arial" font-size="10.00">solid blue: control call</text>
<text text-anchor="middle" x="78" y="-286.5" font-family="Arial" font-size="10.00">solid teal: data path</text>
<text text-anchor="middle" x="78" y="-275.5" font-family="Arial" font-size="10.00">dashed orange: status/error path</text>
<text text-anchor="middle" x="78" y="-264.5" font-family="Arial" font-size="10.00">dotted gray: module dependency</text>
</g>
</g>
</svg>
